{"title":"Skins UK Season 1 1080p x265 10 BIT AC3 2.0","uid":15424538,"size":8389361021,"categoryP":"video","categoryS":"tv_shows","magnet":"?xt=urn:btih:2db84a76910c63ea48d8ca565c936f31c3311720&amp;dn=Skins+UK+Season+1+1080p+x265+10+BIT+AC3+2.0&amp;tr=udp%3A%2F%2Ftracker.leechers-paradise.org%3A6969&amp;tr=udp%3A%2F%2Fzer0day.ch%3A1337&amp;tr=udp%3A%2F%2Fopen.demonii.com%3A1337&amp;tr=udp%3A%2F%2Ftracker.coppersurfer.tk%3A6969&amp;tr=udp%3A%2F%2Fexodus.desync.com%3A6969","seeders":6,"leechers":4,"uploader":"ChiosGR","files":9,"time":1469667031,"description":"General \r\nUnique ID                                : 335693326806525890450396308051286660530 (0xFC8C2EDA9479CAA9977CD52BFD9995B2) \r\nComplete name                            : /Volumes/LaCie Rugged Thunderbolt/S01E01 Tony.mkv \r\nFormat                                   : Matroska \r\nFormat version                           : Version 4 / Version 2 \r\nFile size                                : 984 MiB \r\nDuration                                 : 45mn 37s \r\nOverall bit rate                         : 3 014 Kbps \r\nEncoded date                             : UTC 2016-07-19 19:37:13 / UTC 2016-07-12T23:10:08Z \r\nWriting application                      : mkvmerge v9.3.1 ('Mask Machine') 64bit \r\nWriting library                          : libebml v1.3.4 + libmatroska v1.4.5 / Lavf56.1.0 \r\n\r\nVideo \r\nID                                       : 1 \r\nFormat                                   : HEVC \r\nFormat/Info                              : High Efficiency Video Coding \r\nFormat profile                           : Main   @Main \r\nCodec ID                                 : V_MPEGH/ISO/HEVC \r\nDuration                                 : 45mn 37s \r\nBit rate                                 : 2 730 Kbps \r\nWidth                                    : 1 920 pixels \r\nHeight                                   : 1 080 pixels \r\nDisplay aspect ratio                     : 16:9 \r\nFrame rate mode                          : Constant \r\nFrame rate                               : 25.000 fps \r\nColor space                              : YUV \r\nChroma subsampling                       : 4:2:0 \r\nBit depth                                : 10 bits \r\nBits/(Pixel*Frame)                       : 0.053 \r\nStream size                              : 891 MiB (91%) \r\nWriting library                          : x265 1.9:[Mac OS X][clang 7.0.2][64 bit] 10bit \r\nEncoding settings                        : wpp / ctu=64 / min-cu-size=8 / max-tu-size=32 / tu-intra-depth=1 / tu-inter-depth=1 / me=1 / subme=2 / merange=57 / no-rect / no-amp / max-merge=2 / temporal-mvp / no-early-skip / rdpenalty=0 / no-tskip / no-tskip-fast / strong-intra-smoothing / no-lossless / no-cu-lossless / no-constrained-intra / no-fast-intra / open-gop / no-temporal-layers / interlace=0 / keyint=250 / min-keyint=25 / scenecut=40 / rc-lookahead=20 / lookahead-slices=6 / bframes=4 / bframe-bias=0 / b-adapt=2 / ref=3 / limit-refs=3 / no-limit-modes / weightp / no-weightb / aq-mode=1 / qg-size=32 / aq-strength=1.00 / cbqpoffs=0 / crqpoffs=0 / rd=3 / psy-rd=2.00 / rdoq-level=0 / psy-rdoq=0.00 / signhide / deblock / sao / no-sao-non-deblock / b-pyramid / cutree / no-intra-refresh / rc=crf / crf=20.0 / qcomp=0.60 / qpmin=0 / qpmax=51 / qpstep=4 / ipratio=1.40 / pbratio=1.30 \r\nDefault                                  : Yes \r\nForced                                   : No \r\nColor range                              : Limited \r\nColor primaries                          : BT.709 \r\nTransfer characteristics                 : BT.709 \r\nMatrix coefficients                      : BT.709 \r\nStatistics Tags Issue                    : mkvmerge v9.3.1 ('Mask Machine') 64bit 2016-07-19 19:37:13 / mkvmerge v9.3.1 ('Mask Machine') 64bit 2016-07-19 19:37:13 / UTC 2016-07-12T23:10:08Z \r\nFromStats_BitRate                        : 2788229 \r\nFromStats_Duration                       : 00:45:37.520000000 \r\nFromStats_FrameCount                     : 68438 \r\nFromStats_StreamSize                     : 954104317 \r\n\r\nAudio \r\nID                                       : 2 \r\nFormat                                   : AC-3 \r\nFormat/Info                              : Audio Coding 3 \r\nMode extension                           : CM (complete main) \r\nFormat settings, Endianness              : Big \r\nCodec ID                                 : A_AC3 \r\nDuration                                 : 45mn 37s \r\nBit rate mode                            : Constant \r\nBit rate                                 : 224 Kbps \r\nChannel(s)                               : 2 channels \r\nChannel positions                        : Front: L R \r\nSampling rate                            : 48.0 KHz \r\nFrame rate                               : 31.250 fps (1536 spf) \r\nCompression mode                         : Lossy \r\nDelay relative to video                  : 22ms \r\nStream size                              : 73.1 MiB (7%) \r\nTitle                                    : Stereo \r\nLanguage                                 : English \r\nDefault                                  : Yes \r\nForced                                   : No \r\nStatistics Tags Issue                    : mkvmerge v9.3.1 ('Mask Machine') 64bit 2016-07-19 19:37:13 / mkvmerge v9.3.1 ('Mask Machine') 64bit 2016-07-19 19:37:13 / UTC 2016-07-12T23:10:08Z \r\nFromStats_BitRate                        : 224000 \r\nFromStats_Duration                       : 00:45:37.568000000 \r\nFromStats_FrameCount                     : 85549 \r\nFromStats_StreamSize                     : 76651904 \r\n\r\nText \r\nID                                       : 3 \r\nFormat                                   : UTF-8 \r\nCodec ID                                 : S_TEXT/UTF8 \r\nCodec ID/Info                            : UTF-8 Plain Text \r\nDefault                                  : Yes \r\nForced                                   : No \r\nStatistics Tags Issue                    : mkvmerge v9.3.1 ('Mask Machine') 64bit 2016-07-19 19:37:13 / mkvmerge v9.3.1 ('Mask Machine') 64bit 2016-07-19 19:37:13 / UTC 2016-07-12T23:10:08Z \r\nFromStats_BitRate                        : 68 \r\nFromStats_Duration                       : 00:44:19.022000000 \r\nFromStats_FrameCount                     : 675","torrent":{"xt":"urn:btih:2db84a76910c63ea48d8ca565c936f31c3311720","amp;dn":"Skins+UK+Season+1+1080p+x265+10+BIT+AC3+2.0","amp;tr":["udp%3A%2F%2Ftracker.leechers-paradise.org%3A6969","udp%3A%2F%2Fzer0day.ch%3A1337","udp%3A%2F%2Fopen.demonii.com%3A1337","udp%3A%2F%2Ftracker.coppersurfer.tk%3A6969","udp%3A%2F%2Fexodus.desync.com%3A6969"],"infoHash":"2db84a76910c63ea48d8ca565c936f31c3311720","infoHashBuffer":{"type":"Buffer","data":[45,184,74,118,145,12,99,234,72,216,202,86,92,147,111,49,195,49,23,32]},"announce":[],"urlList":[]}}